<svg width="12" height="12" viewBox="0 0 12 12" fill="none" xmlns="http://www.w3.org/2000/svg">
<path fill-rule="evenodd" clip-rule="evenodd" d="M2.48347 1.06926C2.09295 0.678736 1.45978 0.678736 1.06926 1.06926C0.678736 1.45978 0.678736 2.09295 1.06926 2.48347L4.5855 5.99971L1.15129 9.43392C0.760767 9.82445 0.760767 10.4576 1.15129 10.8481C1.54182 11.2387 2.17498 11.2387 2.56551 10.8481L5.99971 7.41393L9.51627 10.9305C9.90679 11.321 10.54 11.321 10.9305 10.9305C11.321 10.54 11.321 9.90679 10.9305 9.51627L7.41393 5.99971L10.8481 2.56551C11.2387 2.17498 11.2387 1.54182 10.8481 1.15129C10.4576 0.760767 9.82445 0.760767 9.43392 1.15129L5.99971 4.5855L2.48347 1.06926Z" fill="white"/>
</svg>
